<svg xmlns="http://www.w3.org/2000/svg" viewBox="0 0 126.18 253.11">
  <defs/>
  <defs>
    <clipPath id="n" clipPathUnits="userSpaceOnUse">
      <path d="M392.32 328.48h2.612v-7.327h-2.612v7.327z"/>
    </clipPath>
    <clipPath id="m" clipPathUnits="userSpaceOnUse">
      <path d="M390.85 320.32h2.021v-5.445h-2.021v5.445z"/>
    </clipPath>
    <clipPath id="l" clipPathUnits="userSpaceOnUse">
      <path d="M375.75 314.3h19.667v-14.873H375.75V314.3z"/>
    </clipPath>
    <clipPath id="k" clipPathUnits="userSpaceOnUse">
      <path d="M383.28 390.73h19.211v-41.437H383.28v41.437z"/>
    </clipPath>
    <clipPath id="j" clipPathUnits="userSpaceOnUse">
      <path d="M383.68 347.45h8.42v-17.995h-8.42v17.995z"/>
    </clipPath>
    <clipPath id="i" clipPathUnits="userSpaceOnUse">
      <path d="M362.4 496.47h34.849v-38.417H362.4v38.417z"/>
    </clipPath>
    <clipPath id="h" clipPathUnits="userSpaceOnUse">
      <path d="M417.79 446.29h21.886v-3.67H417.79v3.67z"/>
    </clipPath>
    <clipPath id="g" clipPathUnits="userSpaceOnUse">
      <path d="M375.06 446.29h21.887v-3.67H375.06v3.67z"/>
    </clipPath>
    <clipPath id="f" clipPathUnits="userSpaceOnUse">
      <path d="M366.95 460.58h30.517v-62.193H366.95v62.193z"/>
    </clipPath>
    <clipPath id="e" clipPathUnits="userSpaceOnUse">
      <path d="M420.9 448.64h6.882v-3.411H420.9v3.411z"/>
    </clipPath>
    <clipPath id="d" clipPathUnits="userSpaceOnUse">
      <path d="M378.29 450.27h6.884v-3.411h-6.884v3.411z"/>
    </clipPath>
    <clipPath id="c" clipPathUnits="userSpaceOnUse">
      <path d="M382.63 435.58h6.545v-6.354h-6.545v6.354z"/>
    </clipPath>
    <clipPath id="b" clipPathUnits="userSpaceOnUse">
      <path d="M420.22 435.58h6.547v-6.354h-6.547v6.354z"/>
    </clipPath>
    <clipPath id="a" clipPathUnits="userSpaceOnUse">
      <path d="M400.15 395.43h14.177v-2.878H400.15v2.878z"/>
    </clipPath>
  </defs>
  <path fill="#333" d="M33.79 110.13c0 8.908 7.223 16.128 16.13 16.128s16.13-7.22 16.13-16.128c0-8.909-7.222-16.13-16.13-16.13s-16.13 7.221-16.13 16.13"/>
  <path fill="#f9dec5" d="M42.88 213.54s-1.871 12.561-1.871 22.194l5.791-.613s1.915-16.53 3.286-21.877c0 0-4.852-2.057-7.206.296"/>
  <path fill="#e6e6e6" d="M39.87 223.06s9.991-1.761 12.055.3c0 0-4.651 4.885-4.651 7.868h-6.146s-1.258-4.854-1.258-8.168"/>
  <path fill="#f9dec5" d="M76.64 213.54s1.871 12.561 1.871 22.194l-5.791-.613s-1.915-16.53-3.287-21.877c0 0 4.853-2.057 7.207.296"/>
  <path fill="#e6e6e6" d="M79.65 223.06s-9.99-1.761-12.054.3c0 0 4.652 4.885 4.652 7.868h6.146s1.256-4.854 1.256-8.168"/>
  <path fill="#f9dec5" d="M70.24 142.42H52.519v-15.75H70.24v15.75z"/>
  <g clip-path="url(#a)" opacity=".5" transform="matrix(1.25 0 0 -1.25 -447.671 624.1)">
    <path fill="#f7931e" d="M400.15 395.43l14.177-.003v-.418s-5.039-3.616-14.177-2.074v2.495z"/>
  </g>
  <path d="M34.35 187.48s-4.67 19.634-3.991 25.231c0 0 21.221 2.79 28.252-1.849 0 0 .123-18.947 4.374-26.09 0 0-11.081-4.607-28.635 2.708"/>
  <path d="M86.65 187.48s4.669 19.634 3.991 25.231c0 0-21.221 2.79-28.252-1.849 0 0-.123-18.947-4.374-26.09 0 0 11.08-4.607 28.635 2.708"/>
  <path fill="#f9dec5" d="M115.05 70.61c0 33.149-24.022 60.017-53.657 60.017S7.733 103.76 7.733 70.61c0-33.146 24.025-60.016 53.66-60.016s53.657 26.87 53.657 60.016"/>
  <path d="M91.74 82.77a7.666 7.666 0 11-15.33 0 7.665 7.665 0 0115.33 0"/>
  <path fill="#fff" d="M84.84 80.44a3.086 3.086 0 01-3.086 3.086 3.086 3.086 0 01-3.09-3.086 3.087 3.087 0 116.176 0"/>
  <g clip-path="url(#b)" opacity=".2" transform="matrix(1.25 0 0 -1.25 -447.671 624.1)">
    <path fill="#fff" d="M426.77 432.4c0-1.753-1.466-3.177-3.273-3.177-1.809 0-3.274 1.424-3.274 3.177 0 1.756 1.465 3.177 3.274 3.177 1.807 0 3.273-1.421 3.273-3.177"/>
  </g>
  <path d="M42.77 82.77a7.665 7.665 0 11-15.33.002 7.665 7.665 0 0115.33-.002"/>
  <path fill="#fff" d="M37.85 80.44a3.09 3.09 0 01-3.094 3.086 3.088 3.088 0 110-6.178 3.09 3.09 0 013.094 3.092"/>
  <g clip-path="url(#c)" opacity=".2" transform="matrix(1.25 0 0 -1.25 -447.671 624.1)">
    <path fill="#fff" d="M389.17 432.4c0-1.753-1.466-3.177-3.271-3.177-1.808 0-3.274 1.424-3.274 3.177 0 1.756 1.466 3.177 3.274 3.177 1.805 0 3.271-1.421 3.271-3.177"/>
  </g>
  <path d="M74.57 69.39s13.534-6.02 27.357-2.717c0 0-11.23-10.877-27.357 2.717M48.52 69.39s-13.534-6.02-27.359-2.717c0 0 11.233-10.877 27.359 2.717"/>
  <g clip-path="url(#d)" opacity=".2" transform="matrix(1.25 0 0 -1.25 -447.671 624.1)">
    <path fill="#fff" d="M378.29 446.86s2.812 3.587 6.884 3.404c0 0-3.038-.852-5.265-3.079 0 0-1.337-.039-1.619-.325"/>
  </g>
  <g clip-path="url(#e)" opacity=".2" transform="matrix(1.25 0 0 -1.25 -447.671 624.1)">
    <path fill="#fff" d="M420.9 445.23s2.813 3.586 6.883 3.404c0 0-3.036-.852-5.265-3.079 0 0-1.336-.04-1.618-.325"/>
  </g>
  <path fill="#f9dec5" d="M121.9 69.89c0 6.819-3.921 12.344-8.756 12.344s-8.758-5.525-8.758-12.344c0-6.816 3.923-12.344 8.758-12.344s8.756 5.528 8.756 12.344"/>
  <path fill="#f5c384" d="M31.55 97.1c0 3.236-3.357 5.863-7.495 5.863-4.14 0-7.495-2.627-7.495-5.863 0-3.237 3.355-5.861 7.495-5.861 4.138 0 7.495 2.623 7.495 5.861"/>
  <g clip-path="url(#f)" opacity=".2" transform="matrix(1.25 0 0 -1.25 -447.671 624.1)">
    <path fill="#fff" d="M367.72 452.95s-8.324-42.685 29.746-54.558c0 0-23.747 10.931-16.711 62.193 0 0-10.01-3.776-13.035-7.635"/>
  </g>
  <path fill="#f5c384" d="M106.23 97.38c0 3.393-3.516 6.141-7.849 6.141-4.336 0-7.852-2.748-7.852-6.141 0-3.39 3.516-6.139 7.852-6.139 4.333 0 7.849 2.749 7.849 6.139"/>
  <path fill="none" stroke="#f5c384" stroke-width=".47125" d="M117.35 62.38s-11.079-.591-6.33 9.894"/>
  <path fill="#f5c384" d="M116.76 70.61a3.366 3.366 0 11-6.734 0c0-1.858 1.508-3.364 3.368-3.364s3.366 1.506 3.366 3.364"/>
  <g clip-path="url(#g)" opacity=".5" transform="matrix(1.25 0 0 -1.25 -447.671 624.1)">
    <path fill="#f7931e" d="M375.06 445.41s12.636 3.264 21.887-2.791c0 0-10.955 4.216-21.887 2.791"/>
  </g>
  <g clip-path="url(#h)" opacity=".5" transform="matrix(1.25 0 0 -1.25 -447.671 624.1)">
    <path fill="#f7931e" d="M439.68 445.41s-12.636 3.264-21.886-2.791c0 0 10.955 4.216 21.886 2.791"/>
  </g>
  <path d="M8.79 57.06s15.715-16.856 32.046-18.112c0 0-6.907 8.795 7.855 11.935 0 0-10.368-10.05 11.62-16.333 0 0 24.5 5.654 13.822 16.333 0 0 16.02-5.34 6.597-14.763 0 0 29.834 13.186 32.414 21.429 0 0 9.806-6.221 13.04-13.04 0 0-23.153-39.485-48.595-44.51 0 0-11.66 2.986-16.195 10.602C61.394 10.601 55.6 0 49.005 0c0 0-34.551 13.505-49.001 42.09 0 0 2.29 8.475 8.786 14.971"/>
  <path fill="none" stroke="gray" stroke-width=".9425" d="M58.11 84.81c0 5.205-4.22 9.424-9.423 9.424H26.384c-5.204 0-9.423-4.219-9.423-9.424V66.555c0-5.206 4.219-9.425 9.423-9.425h22.303c5.203 0 9.423 4.219 9.423 9.425V84.81zM106.17 84.81a9.424 9.424 0 01-9.424 9.424H74.444c-5.204 0-9.423-4.219-9.423-9.424V66.555c0-5.206 4.219-9.425 9.423-9.425h22.302c5.204 0 9.424 4.219 9.424 9.425V84.81z"/>
  <path fill="none" stroke="gray" stroke-linecap="round" stroke-width="2.8275" d="M58.11 77.2s3.17-4.105 6.91-.365"/>
  <g clip-path="url(#i)" opacity=".2" transform="matrix(1.25 0 0 -1.25 -447.671 624.1)">
    <path fill="#fff" d="M366.54 458.05s-4.146 5.548-4.146 7.527c0 0 9.108 19.802 34.85 30.89 0 0-24.366-17.748-27.535-30.388l1.509-3.932-4.678-4.097z"/>
  </g>
  <path fill="#ed1c24" d="M70.88 134.18c-2.344 1.688-5.561 2.73-9.116 2.73-3.51 0-6.688-1.02-9.024-2.67-13.8 7.824-17.304 32.523-24.302 52.341-.36 1.022.04 2.105.096 3.124 10.347 2.441 21.699 3.793 33.607 3.793 11.118 0 21.752-1.18 31.537-3.322.068-1.166.718-2.483.11-3.595-10.65-19.553-9.442-44.645-22.908-52.401"/>
  <g clip-path="url(#j)" opacity=".2" transform="matrix(1.25 0 0 -1.25 -447.671 624.1)">
    <path fill="#fff" d="M383.68 329.63s2.407 16.27 3.245 17.696c0 0 3.803-.043 5.175.123 0 0-5.401-15.99-4.052-17.719 0 0-4.313-.546-4.368-.1"/>
  </g>
  <path fill="#e83e2e" d="M51.82 121.74s14.085-.819 25.879-6.715l2.948 1.31s-11.96 7.539-28.827 5.405"/>
  <path fill="#ed1c24" d="M71.7 134.99s9.105 1.224 13.826 3.58c0 0-4.271 6.79-4.271 10.474L69.3 144.469l2.4-9.479zM51.76 134.97s-9.102 1.258-13.814 3.633c0 0 4.297 6.773 4.31 10.458l11.937-4.62-2.433-9.471z"/>
  <path fill="#333" d="M21.12 249.96c2.335 4.349 11.148 4.16 19.681-.423 8.533-4.583 13.559-11.823 11.223-16.173-2.338-4.349-11.149-4.16-19.68.422-8.536 4.584-13.559 11.825-11.224 16.174"/>
  <path d="M21.8 243.35c.374-1.109 11.026-2.572 16.204 7.53 0 0-21.583 8.314-16.204-7.53"/>
  <path d="M38 250.88s8.772-3.542 11.098-7.755l4.252-8.437s-12.058 13.522-16.379 14.436"/>
  <path fill="none" stroke="#fff" stroke-linecap="round" stroke-width="2.41125" d="M26.4 240.65l15.204 2.298M33.81 234.52l15.204 2.298M34.18 235.52l2.391 10.252M39.75 232.4l2.394 10.254"/>
  <path fill="#333" d="M100.99 249.96c-2.335 4.349-11.146 4.16-19.679-.423-8.533-4.583-13.558-11.823-11.223-16.173 2.335-4.349 11.148-4.16 19.68.422 8.536 4.584 13.56 11.825 11.222 16.174"/>
  <path d="M100.32 243.35c-.376-1.109-11.026-2.572-16.205 7.53 0 0 21.582 8.314 16.205-7.53"/>
  <path d="M84.12 250.88s-8.772-3.542-11.097-7.755l-4.253-8.437s12.058 13.522 16.379 14.436"/>
  <path fill="none" stroke="#fff" stroke-linecap="round" stroke-width="2.41125" d="M95.72 240.65l-15.204 2.298M88.31 234.52l-15.203 2.298M87.94 235.52l-2.395 10.252M82.37 232.4l-2.394 10.254"/>
  <path d="M49.71 146.18s8.075 2.518 21.695 6.574c0 0 4.856 23.711-5.734 32.017l-10.015-1.363s15.749-15.79 13.339-25.43c0 0-16.03-.162-24.508 3.213 0 0 2.812-12.601 5.223-15.011"/>
  <g clip-path="url(#k)" opacity=".2" transform="matrix(1.25 0 0 -1.25 -447.671 624.1)">
    <path fill="#fff" d="M391.96 387.6l2.74-6.509-11.419-31.799 5.807.198s13.404 35.145 13.404 38.185-2.803 3.055-2.803 3.055l-7.729-3.13z"/>
  </g>
  <g clip-path="url(#l)" opacity=".2" transform="matrix(1.25 0 0 -1.25 -447.671 624.1)">
    <path fill="#fff" d="M376.02 300.94s4.127 12.056 17.937 13.354c0 0 2.779.12.673-1.06 0 0-11.368-2.946-18.526-13.81 0 0-.733.028-.084 1.516"/>
  </g>
  <g clip-path="url(#m)" opacity=".2" transform="matrix(1.25 0 0 -1.25 -447.671 624.1)">
    <path fill="#fff" d="M391.5 314.88s-.873 3.632-.592 4.878l1.825.567.141-5.276-1.374-.169z"/>
  </g>
  <g clip-path="url(#n)" opacity=".2" transform="matrix(1.25 0 0 -1.25 -447.671 624.1)">
    <path fill="#fff" d="M393.11 328.19l-.79-7.045 1.24.125 1.371 7.201-1.821-.281z"/>
  </g>
  <path fill="#f9dec5" d="M32.07 176.05a7.952 7.952 0 11-11.475-11.011 7.95 7.95 0 0111.242-.231 7.947 7.947 0 01.233 11.242"/>
  <path fill="#f9dec5" d="M39.14 140.63c-2.51 1.043-32.788 2.248-28.475 12.621 4.311 10.373 10.369 16.052 10.369 16.052l7.69-3.198s-11.615-10.855-6.827-12.845c0 0 16.293-6.507 19.99-6.426M84.66 175.43a7.952 7.952 0 1013.516-8.379 7.952 7.952 0 00-13.516 8.379"/>
  <path fill="#f9dec5" d="M84.22 140.84c2.237 1.542 32.511 7.51 26.132 16.756-6.377 9.248-13.486 13.538-13.486 13.538l-6.854-4.726s13.62-8.198 9.352-11.142c0 0-13.712-7.487-17.345-8.178"/>
</svg>